<svg width="52" height="51" viewBox="0 0 52 51" fill="none" xmlns="http://www.w3.org/2000/svg">
<path d="M51.2698 15.2832C51.1339 14.2752 50.9928 13.2331 50.9336 12.2404C50.891 11.5271 50.9132 10.7699 50.9331 10.0384C50.9655 8.87227 50.9991 7.66691 50.7903 6.51385C49.8204 1.15309 44.5637 1.15309 41.0868 1.15309L39.7495 1.15651C38.1419 1.15651 36.5133 1.21794 34.9382 1.2771C32.6309 1.36357 30.2514 1.45573 27.9112 1.35048C25.8082 1.25776 23.6982 1.19689 21.5884 1.13659C18.7198 1.05525 15.7544 0.97049 12.8578 0.799832C12.4459 0.775371 12.0193 0.761719 11.583 0.761719C8.98167 0.761719 5.41036 1.24069 3.17254 3.51899C0.679293 6.05665 0.304455 9.69378 0.116162 13.5119C-0.123319 18.3324 0.0547253 23.2091 0.227087 27.9243L0.276577 29.2929C0.324929 30.6354 0.321515 31.9921 0.318103 33.3033C0.307295 37.411 0.297623 41.658 1.89843 45.7901C2.50596 47.3573 3.25969 48.0502 4.88491 48.5308C10.1149 50.082 15.6635 50.2123 20.4522 50.2123C21.425 50.2123 22.3988 50.206 23.3698 50.1986C24.3369 50.1924 25.3017 50.185 26.2641 50.185C28.089 50.185 30.4867 50.206 32.8417 50.375C33.5881 50.4279 34.307 50.4461 35.0181 50.4632C36.1404 50.4899 37.2013 50.5155 38.3266 50.6776C39.462 50.8397 40.6697 50.999 41.8738 50.999C42.8995 50.999 43.7954 50.8841 44.6123 50.6486C49.7615 49.1622 49.9856 41.5971 50.149 36.0744C50.1809 34.9794 50.2116 33.9458 50.2821 33.1238C50.4385 31.2972 50.6672 29.436 50.8874 27.6355C51.1826 25.223 51.4886 22.7286 51.6286 20.2683C51.7213 18.6255 51.4905 16.9255 51.2698 15.2832ZM5.38772 23.32C5.58681 19.9444 5.86327 17.3067 6.62326 14.5854C6.8434 13.7993 6.95375 12.991 7.06013 12.21C7.28597 10.558 7.50042 8.99763 8.68473 7.76389C9.81559 6.58638 11.4328 6.42312 13.0126 6.42312C13.4038 6.42312 13.7967 6.43368 14.185 6.44412C14.1998 6.44451 14.2146 6.44491 14.2293 6.44531C14.5542 6.45498 14.8767 6.46351 15.1941 6.46635C17.8644 6.49258 20.5671 6.6086 23.1845 6.72096C23.235 6.72312 23.2855 6.72529 23.336 6.72746C23.3376 6.72753 23.3392 6.7276 23.3408 6.72767C26.3787 6.85901 29.5199 6.99481 32.627 6.99481C33.0992 6.99481 33.5884 7.03463 34.0617 7.07388C34.9252 7.1467 35.8012 7.18253 36.7626 7.01529C36.7656 7.01477 36.7686 7.01425 36.7716 7.01373C37.1806 6.94254 37.6026 6.86909 38.0453 6.86796C39.2553 6.75931 39.9447 6.94533 41.1485 7.2747L41.3595 7.32987C43.3624 7.70474 45.3198 8.29066 46.0741 10.0132C46.7904 11.7141 46.8232 14.0568 46.8523 16.1246C46.8523 16.126 46.8523 16.1274 46.8523 16.1288C46.8526 16.1481 46.8529 16.1673 46.8531 16.1865C46.8619 16.8127 46.8703 17.4075 46.8989 17.9406C47.1628 24.1334 46.0684 29.3999 44.9103 34.9732C44.9097 34.976 44.9091 34.9788 44.9085 34.9816C44.7016 35.976 44.6322 37.0226 44.5651 38.0343L44.565 38.0358C44.5648 38.0383 44.5646 38.0407 44.5645 38.0432C44.4543 39.7093 44.3403 41.4323 43.5968 42.9011C42.1724 45.7187 40.0119 45.8011 37.0221 45.9127L36.7474 45.9235C35.6336 45.9667 34.4833 45.9889 33.3297 45.9889C28.2988 45.9889 22.9568 45.5981 16.0105 44.7209C15.5309 44.6606 15.0343 44.6106 14.5303 44.5605C11.0751 44.2147 7.50058 43.8569 6.9772 39.8749C6.50846 36.3104 6.11711 32.7318 5.73939 29.2716L5.38613 26.0559C5.26895 25.1071 5.26826 24.2956 5.38772 23.32Z" fill="#2D2D2D"/>
<path d="M5.38772 23.32C5.58681 19.9444 5.86327 17.3067 6.62326 14.5854C6.8434 13.7993 6.95375 12.991 7.06013 12.21C7.28597 10.558 7.50042 8.99763 8.68473 7.76389C9.81559 6.58638 11.4328 6.42312 13.0126 6.42312C13.4038 6.42312 13.7967 6.43368 14.185 6.44412L14.2293 6.44531C14.5542 6.45498 14.8767 6.46351 15.1941 6.46635C17.8644 6.49258 20.5671 6.6086 23.1845 6.72096L23.336 6.72746L23.3408 6.72767C26.3787 6.85901 29.5199 6.99481 32.627 6.99481C33.0992 6.99481 33.5884 7.03463 34.0617 7.07388C34.9252 7.1467 35.8012 7.18253 36.7626 7.01529L36.7716 7.01373C37.1806 6.94254 37.6026 6.86909 38.0453 6.86796C39.2553 6.75931 39.9447 6.94533 41.1485 7.2747L41.3595 7.32987C43.3624 7.70474 45.3198 8.29066 46.0741 10.0132C46.7904 11.7141 46.8232 14.0568 46.8523 16.1246L46.8523 16.1288L46.8531 16.1865C46.8619 16.8127 46.8703 17.4075 46.8989 17.9406C47.1628 24.1334 46.0684 29.3999 44.9103 34.9732L44.9085 34.9816C44.7016 35.976 44.6322 37.0226 44.5651 38.0343L44.565 38.0358L44.5645 38.0432C44.4543 39.7093 44.3403 41.4323 43.5968 42.9011C42.1724 45.7187 40.0119 45.8011 37.0221 45.9127L36.7474 45.9235C35.6336 45.9667 34.4833 45.9889 33.3297 45.9889C28.2988 45.9889 22.9568 45.5981 16.0105 44.7209C15.5309 44.6606 15.0343 44.6106 14.5303 44.5605C11.0751 44.2147 7.50058 43.8569 6.9772 39.8749C6.50846 36.3104 6.11711 32.7318 5.73939 29.2716L5.38613 26.0559C5.26895 25.1071 5.26826 24.2956 5.38772 23.32Z" fill="white"/>
</svg>
