<svg width="45" height="46" viewBox="0 0 45 46" fill="none" xmlns="http://www.w3.org/2000/svg">
<path d="M44.9344 3.81471C44.7481 2.7472 44.0738 1.3948 41.9299 0.933821C39.419 0.559642 37.4729 3.22914 35.9374 5.34982C35.6028 5.81097 35.2834 6.25537 34.9728 6.64552C34.6737 7.02211 34.315 7.55826 34.1224 7.85104C33.5939 7.97232 33.2732 8.75818 33.0559 9.29353C33.0204 9.3805 32.9906 9.45948 32.964 9.51532C32.4969 9.92222 32.1908 10.5022 31.9545 10.9586L23.3904 23.2828C23.1439 23.5916 22.0837 24.9447 21.7345 25.7099C20.36 27.4452 19.1142 29.3616 17.8968 31.2357L17.4519 31.9857C17.3119 32.2211 17.175 32.4533 17.0387 32.6814C16.9019 32.4939 16.765 32.3088 16.63 32.1253C16.265 31.6299 15.9139 31.1544 15.5869 30.6565C15.1883 29.9871 14.7859 29.3114 14.2193 28.4282L13.4564 27.4812C13.1762 26.9538 12.8879 26.4081 12.4481 25.8544C12.0565 25.3613 11.2536 24.1821 11.2491 24.1765C10.552 23.1242 9.18328 21.2293 9.09762 21.1384L8.8923 20.7474C8.32892 19.6743 7.47849 18.0546 6.65465 17.0334C6.44869 16.8611 6.24336 16.6991 6.03804 16.5531L6.05958 16.4821C5.88405 16.3712 5.69646 16.2898 5.51079 16.2164C5.44425 16.1717 5.37517 16.1398 5.37898 16.1398C5.02093 15.9148 4.54691 15.9077 4.49431 15.9077L4.47593 16.0584C2.88912 16.0744 1.01457 17.2608 0.655878 19.3871C0.3143 20.6803 0.942313 22.0821 1.58364 22.8895L3.30362 25.0549L3.40692 25.3158L3.45888 25.4179C4.53113 27.1053 5.62499 28.9969 6.68193 30.8263L6.76304 30.9532C6.81754 31.0218 6.9069 31.2109 6.97914 31.3824C8.0818 33.9906 10.1027 35.8544 11.4309 38.2543C12.1939 39.6337 13.0082 40.837 13.7357 42.2316C14.1147 42.9576 14.4651 44.1775 15.0678 44.677C18.0165 47.1247 19.5006 42.1742 20.7079 39.763L20.7288 39.7024C21.6889 38.4259 22.4678 37.2945 23.6458 35.5823L23.7909 35.3717C24.7357 33.9069 25.6851 32.4428 26.6319 31.006L28.1217 29.017C30.0406 26.4496 31.8537 24.0242 34.0089 21.3083C36.6173 17.367 39.201 14.1023 41.9081 11.3274C43.436 9.76126 45.3844 6.3972 44.9344 3.81471Z" fill="#2D2D2D"/>
</svg>
