<svg width="32" height="29" viewBox="0 0 32 29" fill="none" xmlns="http://www.w3.org/2000/svg">
<path d="M30.9037 5.94501C30.891 3.53317 28.9865 1.12414 26.5043 0.321455L26.5146 0.267188C24.9312 -0.185153 23.161 0.0295118 21.4489 0.236619C20.359 0.368509 19.3311 0.49319 18.3508 0.457808C16.7338 0.399076 15.5076 0.388772 14.2536 0.424836C13.1985 0.456435 12.1266 0.399076 11.0889 0.345152C10.051 0.290884 8.97694 0.2349 7.91531 0.263751C6.59948 0.300158 4.71388 0.448538 3.53408 1.31404C1.98639 2.44953 1.28675 4.74117 0.775717 6.41487C0.262241 8.09753 0.129656 9.94092 0.0386425 11.685C-0.0159682 12.7274 -0.0125338 13.7551 0.047916 14.7409C0.0664634 15.0438 0.0592508 15.3756 0.0516941 15.7266C0.0358945 16.4348 0.0200951 17.1664 0.214157 17.7874C0.67406 19.2588 1.99916 20.5256 3.6711 21.0939C4.1389 21.2526 4.72693 21.389 5.28368 21.4673C5.86585 21.5494 6.4102 21.4487 6.9361 21.3515C7.32249 21.2801 7.67798 21.2097 8.06262 21.2142C8.14986 21.2142 8.26492 21.2121 8.39406 21.2093C8.78595 21.2001 9.44232 21.1867 9.67137 21.2695C9.70194 21.2804 9.73045 21.289 9.75758 21.2959C9.77441 21.3722 9.79708 21.457 9.82353 21.5494C9.88158 21.7496 9.89257 22 9.90218 22.2418C9.90596 22.3318 9.91008 22.4201 9.91558 22.5042C9.92794 22.677 9.93413 22.8504 9.94065 23.0235C9.95302 23.3529 9.96572 23.6936 10.0166 24.032C10.0791 24.4465 10.0543 24.8714 10.0282 25.321C9.99835 25.8386 9.9671 26.3737 10.0804 26.8961C10.2759 27.7946 10.6709 28.3273 11.2537 28.4788C11.3674 28.5083 11.4852 28.5228 11.6061 28.5228C13.0219 28.5228 14.9264 26.5935 16.631 24.6615C16.7581 24.5176 16.8652 24.3957 16.9497 24.3036C17.1345 24.1013 17.3141 23.8832 17.4951 23.6624C17.9403 23.1207 18.4002 22.5606 18.9762 22.2154C19.3454 21.9942 19.613 22.0594 20.0574 22.168L20.2934 22.224C21.0882 22.4022 21.9022 22.3418 22.6952 22.2827L23.1912 22.2476C24.9573 22.1264 26.7838 22.001 28.1972 20.7327C29.2286 19.8064 29.8826 18.5435 30.1402 16.9786C30.337 15.7817 30.4311 14.5417 30.5218 13.3427C30.5696 12.7124 30.6169 12.0835 30.6788 11.4612C30.7196 11.0487 30.7722 10.6376 30.8251 10.2268C31.0058 8.83648 31.1899 7.40037 30.9037 5.94518L30.9037 5.94501Z" fill="#2D2D2D"/>
</svg>
