<svg width="31" height="29" viewBox="0 0 31 29" fill="none" xmlns="http://www.w3.org/2000/svg">
<path d="M11.8802 0.386741C10.3569 0.760448 9.297 0.573595 8.03841 1.50786C5.98498 2.94033 4.13049 4.62202 2.20935 6.24155C1.81193 6.55291 -0.2415 7.86088 0.023524 8.60829C0.619659 10.29 2.14304 11.6603 3.20291 13.1551C3.46793 13.5288 3.93144 14.1518 4.46149 14.1518C4.92523 14.1518 7.37585 12.9683 7.37585 12.7193C7.11083 18.0135 8.43572 23.3075 8.3031 28.6018C8.3031 28.7887 8.50181 28.9755 8.70052 28.9755C12.1449 29.0379 15.6554 28.9755 19.0999 28.851C20.1598 28.7887 24.4652 29.2247 25.1277 28.166C26.055 26.6711 25.1277 23.1209 25.0614 21.4393C24.929 17.7645 24.7303 14.152 24.5977 10.4774C24.3326 10.5397 24.0679 10.6019 23.8028 10.6642C24.5314 11.7853 25.3262 12.8441 26.1874 13.9031C26.3198 14.0276 26.6511 14.0276 26.7835 13.9031C28.3732 12.159 29.7642 10.3529 30.9564 8.35994C31.0228 8.23544 31.0228 7.98623 30.8901 7.86173C29.168 6.42926 27.512 4.93443 25.856 3.43961C24.7962 2.50534 23.7365 0.948156 22.3455 0.387595C21.6831 0.138386 20.5571 -0.235321 19.8286 0.200742C17.7752 1.44636 14.7284 4.49837 12.8073 0.636804C12.6086 0.200742 11.88 0.574449 12.0787 1.01051C12.1114 1.07699 12.1444 1.14202 12.1778 1.20562C13.7718 4.24087 16.2411 4.01778 18.9014 1.88242C21.7496 -0.484317 23.4054 2.25613 25.2601 4.00017C26.3162 4.99319 27.4378 5.986 28.5597 6.97902C28.5638 6.98262 28.5678 6.98622 28.5719 6.98982C30.2279 8.42229 29.4331 9.29442 28.3732 10.8514C26.5848 13.405 25.7899 12.4086 24.5314 10.3532C24.3326 10.0418 23.7365 10.1663 23.7365 10.54C23.8689 14.2148 24.0676 17.8273 24.2002 21.5019C24.2666 22.7475 25.2601 27.7306 23.008 27.9174C20.8222 28.1043 18.7026 28.1666 16.5169 28.2911C14.3311 28.3535 12.1453 28.3535 10.0259 28.3535C8.56858 28.3535 9.09862 23.7445 9.09862 22.9347C8.89991 19.1977 8.10507 15.4606 8.30378 11.7235C8.30378 11.4122 7.97267 11.2253 7.70764 11.4122C6.97911 11.7859 4.72697 13.7789 3.99844 12.8446C3.13728 11.7859 0.355315 9.16992 1.94501 7.67509C3.46839 6.30476 5.05808 4.99679 6.64777 3.68882C7.44262 3.0659 8.23747 2.4432 9.03231 1.88264C8.77249 2.06582 11.5687 1.35106 12.1778 1.20562C12.19 1.20271 12.2013 1.20002 12.2117 1.19758C12.6091 1.00989 12.344 0.262243 11.8802 0.386741Z" fill="#2D2D2D"/>
<path d="M18.9014 1.88242C16.2411 4.01778 13.7718 4.24087 12.1778 1.20562C11.5687 1.35106 8.77249 2.06582 9.03231 1.88264C8.23747 2.4432 7.44262 3.0659 6.64777 3.68882C5.05808 4.99679 3.46839 6.30476 1.94501 7.67509C0.355315 9.16992 3.13728 11.7859 3.99844 12.8446C4.72697 13.7789 6.97911 11.7859 7.70764 11.4122C7.97267 11.2253 8.30378 11.4122 8.30378 11.7235C8.10507 15.4606 8.89991 19.1977 9.09862 22.9347C9.09862 23.7445 8.56858 28.3535 10.0259 28.3535C12.1453 28.3535 14.3311 28.3535 16.5169 28.2911C18.7026 28.1666 20.8222 28.1043 23.008 27.9174C25.2601 27.7306 24.2666 22.7475 24.2002 21.5019C24.0676 17.8273 23.8689 14.2148 23.7365 10.54C23.7365 10.1663 24.3326 10.0418 24.5314 10.3532C25.7899 12.4086 26.5848 13.405 28.3732 10.8514C29.4331 9.29442 30.2279 8.42229 28.5719 6.98982L28.5597 6.97902C27.4378 5.986 26.3162 4.99319 25.2601 4.00017C23.4054 2.25613 21.7496 -0.484317 18.9014 1.88242Z" fill="#2D2D2D"/>
</svg>
