<svg width="29" height="32" viewBox="0 0 29 32" fill="none" xmlns="http://www.w3.org/2000/svg">
<path d="M28.5943 16.4275C28.4037 16.436 28.2132 16.4431 28.0226 16.449C25.2358 16.5355 22.449 16.3655 19.6622 16.4275C16.5526 16.4938 13.5754 17.2215 10.4654 17.0892C8.87746 17.023 7.28955 16.8908 5.70163 16.8908C5.23841 16.8908 0.540906 17.354 1.33486 15.8321C2.65805 13.1855 4.24597 10.8036 5.50314 8.15734C6.2971 6.43717 6.69408 1.21021 9.2082 1.14386C12.5825 1.14386 15.8905 1.14386 19.2648 1.07762H21.7789C22.3082 1.80534 22.7714 2.59929 23.1021 3.39325C23.9623 5.11342 24.69 6.83381 25.2855 8.62021C25.7487 10.0096 25.9472 11.4653 26.4102 12.7885C26.7955 14.0728 27.5548 15.2324 28.0226 16.449C28.0368 16.4859 28.0507 16.5228 28.0644 16.5598C28.2628 17.089 29.0568 16.8245 28.8583 16.3613C28.2628 14.7071 27.4026 13.2517 26.8734 11.5313C26.2117 9.34793 25.7487 7.23079 24.8223 5.1133C24.2931 3.85613 23.4329 0.415796 21.7787 0.217307C17.3464 -0.311922 12.4503 0.283546 7.95137 0.349779C6.03271 0.349779 5.90023 4.51806 5.50325 5.77523C4.4448 9.61254 1.07048 12.7224 0.0780284 16.4937C-0.31895 17.8831 0.871986 17.7508 1.99668 17.7508C6.2312 17.7508 10.6639 18.2801 14.8985 17.8171C19.53 17.2878 24.029 17.4201 28.6606 17.2878C29.1236 17.2216 29.1236 16.4276 28.5944 16.4276L28.5943 16.4275Z" fill="#2D2D2D"/>
<path d="M19.6622 16.4275C22.449 16.3655 25.2358 16.5355 28.0226 16.449C27.5548 15.2324 26.7955 14.0728 26.4102 12.7885C25.9472 11.4653 25.7487 10.0096 25.2855 8.62021C24.69 6.83381 23.9623 5.11342 23.1021 3.39325C22.7714 2.59929 22.3082 1.80534 21.7789 1.07762H19.2648C15.8905 1.14386 12.5825 1.14386 9.2082 1.14386C6.69408 1.21021 6.2971 6.43717 5.50314 8.15734C4.24597 10.8036 2.65805 13.1855 1.33486 15.8321C0.540906 17.354 5.23841 16.8908 5.70163 16.8908C7.28955 16.8908 8.87746 17.023 10.4654 17.0892C13.5754 17.2215 16.5526 16.4938 19.6622 16.4275Z" fill="#2D2D2D"/>
<path d="M15.9422 17.5532V17.5376L15.9403 17.5221C15.8886 17.1091 15.5451 16.9062 15.2373 16.9062C15.0829 16.9062 14.9201 16.9555 14.7923 17.0675C14.6597 17.1837 14.582 17.3529 14.582 17.5532V29.8595C14.582 30.067 14.6696 30.237 14.8079 30.3505C14.9402 30.459 15.1065 30.5064 15.2621 30.5064C15.4178 30.5064 15.5841 30.459 15.7164 30.3505C15.8547 30.237 15.9422 30.067 15.9422 29.8595V17.5532Z" fill="#2D2D2D" stroke="#2D2D2D" stroke-width="0.5"/>
<path d="M23.5567 30.8356L23.5567 30.8357H23.5665C23.7667 30.8357 23.9359 30.758 24.0522 30.6254C24.1642 30.4977 24.2134 30.3349 24.2134 30.1805C24.2134 29.8727 24.0105 29.5292 23.5975 29.4775L23.5869 29.4762L23.5762 29.4757C18.4731 29.2769 13.3027 29.3432 8.197 29.741L8.19698 29.7408L8.18539 29.7422C7.76057 29.7954 7.56934 30.1677 7.56934 30.4701C7.56934 30.6248 7.61652 30.7935 7.73413 30.922C7.85802 31.0575 8.03739 31.123 8.24106 31.0993C13.3231 30.7035 18.4721 30.6375 23.5567 30.8356Z" fill="#2D2D2D" stroke="#2D2D2D" stroke-width="0.5"/>
</svg>
