<svg width="40" height="29" viewBox="0 0 40 29" fill="none" xmlns="http://www.w3.org/2000/svg">
<path d="M11.198 7.06185C11.82 7.19514 12.514 7.1298 13.0742 6.97467C13.1136 7.48899 13.2968 7.92529 13.5122 8.3131C13.6213 8.5095 13.7402 8.69594 13.8529 8.87262C13.8654 8.89222 13.8778 8.91171 13.8901 8.93108C13.9924 9.09181 14.0878 9.24412 14.169 9.39391L14.0119 9.55099L13.4907 10.0722L13.473 10.0898L13.4619 10.1122C13.3259 10.384 13.1411 10.6534 12.9362 10.952C12.8639 11.0573 12.7892 11.1663 12.7132 11.2802C12.4537 11.6696 12.1891 12.1054 11.9959 12.6202C10.5247 11.9104 9.01502 11.5586 7.49779 12.3017C5.93041 12.3166 4.48345 13.298 3.34185 14.6299C2.18885 15.9751 1.32487 17.7026 0.940063 19.242L0.938338 19.2489L0.937257 19.2559C0.161231 24.3006 4.43171 28.1527 9.42974 28.1527C13.2713 28.1527 16.3267 24.745 16.7709 20.9498H18.5282C19.2953 20.9498 19.8115 20.855 20.2318 20.5398C20.6433 20.2312 20.9413 19.7255 21.3177 18.973C22.0789 17.6403 22.7442 16.2142 23.4072 14.7461C23.5289 14.4767 23.6505 14.2058 23.7727 13.9339C24.2626 12.8426 24.7608 11.7331 25.3058 10.6216C25.4615 11.2189 25.6171 11.7635 25.7723 12.3065L25.7727 12.3082C25.9541 12.943 26.1348 13.5755 26.3155 14.2905C24.8099 15.4665 24.0611 17.3707 23.6859 19.2442C23.1028 21.3903 23.8865 23.6192 25.3301 25.3033C26.7745 26.9884 28.8997 28.1529 31.0388 28.1529C36.0744 28.1529 39.154 23.8898 39.154 19.2796C39.154 15.7794 36.0552 13.0771 32.9677 12.6838C30.7283 11.9416 28.8354 12.2792 27.3055 13.3597C26.9876 12.6745 26.8181 11.9866 26.6875 11.2899C26.6414 11.0438 26.5998 10.7945 26.5579 10.5435C26.4732 10.0354 26.3872 9.52004 26.2598 9.00987C26.207 8.74612 26.1409 8.45794 26.0718 8.15652C25.8874 7.35195 25.6813 6.45302 25.6474 5.67252C25.6241 5.13657 25.6848 4.68791 25.8688 4.37765C26.0441 4.08215 26.3445 3.89037 26.8677 3.89037C28.0896 3.89037 28.8881 3.06858 29.6495 1.92627L29.6753 1.88747V1.84085C29.6753 1.60637 29.56 1.36561 29.3698 1.2388C29.2716 1.17337 29.1516 1.13767 29.0212 1.15505C28.8915 1.17232 28.7672 1.23988 28.6543 1.35274C27.9352 2.07182 26.8439 2.44501 25.3514 2.44501H25.3481C25.2557 2.44501 25.1563 2.44501 25.0679 2.45133C24.9832 2.45738 24.8854 2.47029 24.8086 2.50868C24.7678 2.52906 24.7216 2.56221 24.6913 2.61636C24.6593 2.67354 24.6553 2.73562 24.6679 2.79237C24.6865 2.87607 24.7432 2.95855 24.8182 3.04016C24.8182 4.85914 24.8217 6.69421 25.1686 8.53169C23.7177 8.70019 22.2651 8.70038 20.8021 8.70038H20.7974C19.2872 8.70038 17.766 8.70038 16.2434 8.88998H15.2107C14.9718 8.41225 14.7329 7.93453 14.4941 7.4567C14.3945 7.25753 14.2949 7.05833 14.1953 6.8591C15.2549 6.50414 16.3453 6.10297 17.0965 5.02184C17.2906 4.99471 17.4495 4.87474 17.4495 4.68411C17.4495 4.4661 17.2417 4.3405 17.0111 4.3405H13.5993H13.5355L13.4904 4.38561C13.3349 4.54108 13.0893 4.62879 12.8157 4.67441C12.5456 4.71944 12.2733 4.71971 12.083 4.71971C11.7319 4.71971 11.4684 4.63258 11.2398 4.54113C11.2033 4.52652 11.1662 4.51112 11.1289 4.49571C11.0535 4.46446 10.978 4.43319 10.9081 4.40854C10.8004 4.37049 10.6867 4.3405 10.5667 4.3405C10.4279 4.3405 10.279 4.40656 10.151 4.48976C10.0186 4.57583 9.88789 4.69361 9.78297 4.82478C9.67918 4.95451 9.59245 5.10761 9.56243 5.26539C9.53368 5.41645 9.55741 5.57572 9.66916 5.70766C9.88663 6.51334 10.5065 6.91366 11.198 7.06185ZM16.7829 18.4908C16.4016 16.5851 14.9101 14.7017 13.0596 13.1924C13.2039 12.9912 13.2868 12.7423 13.3602 12.522L13.3661 12.5042C13.4641 12.2104 13.5491 11.9651 13.7079 11.8064L13.7256 11.7887L13.7367 11.7664C13.9217 11.3966 14.1024 11.1276 14.3239 10.906C14.5171 10.7129 14.7462 10.5507 15.0468 10.3899C15.7131 11.7485 16.2328 13.1804 16.7448 14.5913C16.7853 14.7028 16.8256 14.8141 16.8661 14.9252C17.4138 16.4315 17.9657 17.906 18.6906 19.2105C18.0669 19.4817 17.4405 19.5027 16.7859 19.5043V18.5211V18.5058L16.7829 18.4908ZM21.4282 15.7882L21.4278 15.7879L21.4226 15.7985C21.3314 15.9808 21.2405 16.1841 21.1463 16.3947L21.1294 16.4324C21.0287 16.6576 20.9233 16.8917 20.8065 17.1254C20.5725 17.5934 20.297 18.0502 19.9351 18.4122L19.89 18.4573V18.5211C19.89 18.6429 19.8387 18.6982 19.7455 18.7913L19.7412 18.7957C19.7081 18.8287 19.6704 18.8664 19.6353 18.9118C18.2373 16.3735 17.5107 13.8335 16.78 11.2757L16.769 11.2373L16.7408 11.2091C16.5726 11.0409 16.4872 10.8735 16.3957 10.6448C16.3745 10.5917 16.3528 10.5349 16.3296 10.4742C16.2731 10.3261 16.2076 10.1547 16.1176 9.95575H19.6496C20.6096 10.146 21.4726 10.1452 22.327 10.0977C22.6035 10.0824 22.8774 10.0623 23.153 10.0421C23.6546 10.0053 24.1616 9.96818 24.6997 9.95829C24.1759 10.8449 23.6526 11.8043 23.1309 12.7608L23.1304 12.7618C22.5616 13.8046 21.9947 14.8439 21.4282 15.7882Z" fill="#2D2D2D" stroke="#2D2D2D" stroke-width="0.308011"/>
</svg>
