<svg width="26" height="30" viewBox="0 0 26 30" fill="none" xmlns="http://www.w3.org/2000/svg">
<path d="M12.732 1.26898C12.6094 1.08471 12.4177 0.960021 12.2019 0.924219C11.9858 0.888662 11.7651 0.945361 11.5917 1.08063C11.0978 1.48977 10.7608 2.0623 10.6397 2.69851C10.5474 3.20904 10.5174 3.7292 10.5504 4.24744L10.558 4.50043C10.6021 6.0234 10.6477 7.59848 10.2801 9.02846H10.2803C10.1955 9.43016 10.03 9.80951 9.79414 10.143C9.56345 10.4416 9.19652 10.6295 9.05766 10.5718C8.99556 10.5341 8.94007 10.4861 8.89355 10.4298C8.39369 9.91379 8.09384 9.23125 8.04917 8.50807C8.01541 7.98985 8.00289 7.45432 7.99062 6.93608L7.97928 6.47671C7.96441 5.81793 7.94174 5.05054 7.85579 4.28776C7.81659 3.92162 7.75874 3.55789 7.68271 3.19796C7.65249 3.06894 7.614 2.94233 7.56749 2.81836C7.54104 2.74532 7.49712 2.61799 7.47942 2.54784V2.54808C7.49665 2.12908 7.19584 1.76654 6.78736 1.71346C6.37864 1.66036 5.99799 1.93425 5.91113 2.34413C5.70547 3.47957 5.6207 4.63444 5.658 5.78839C5.658 6.5024 5.65612 7.17729 5.59543 7.85335C5.57064 8.1157 5.56285 8.3783 5.55529 8.632H5.55505C5.57465 9.12067 5.50594 9.60863 5.35222 10.0721C5.2174 10.4348 4.8363 10.6364 4.46698 10.5408C4.31846 10.4836 4.18765 10.387 4.08825 10.2609C3.90526 10.0363 3.76452 9.7792 3.67338 9.50243C3.58248 9.26818 3.51636 9.02457 3.47599 8.77593C3.42758 8.4588 3.39925 8.13881 3.39146 7.81806C3.39146 7.55859 3.40067 7.27485 3.4179 6.97692C3.43372 6.7285 3.45616 6.4784 3.47882 6.2278L3.49818 6.01013H3.49795C3.62191 5.00323 3.64647 3.98625 3.57114 2.97456C3.56925 2.95847 3.56689 2.94237 3.5643 2.92603C3.51329 2.61274 3.43538 2.30428 3.33124 2.00488C3.32227 1.97893 3.31188 1.95346 3.30031 1.92872C3.2146 1.74516 3.11519 1.56858 3.0028 1.4004C2.98202 1.36845 2.95888 1.33818 2.93362 1.30983C2.84625 1.20916 2.75369 1.1133 2.65618 1.02272C2.61816 0.990047 2.57779 0.960017 2.53576 0.932629L2.50671 0.913409V0.91365C2.25855 0.750761 1.94191 0.742107 1.68548 0.891306L1.62575 0.925903H1.62551C1.57474 0.955934 1.52728 0.991251 1.48408 1.03186C1.39766 1.11258 1.31691 1.20075 1.23048 1.29926C1.21018 1.32257 1.19105 1.34683 1.17311 1.37206C0.969807 1.66973 0.79508 1.98638 0.651283 2.31794C0.646561 2.32875 0.64231 2.33956 0.637823 2.35013V2.35037C0.532513 2.61513 0.444206 2.88662 0.373369 3.16316C0.303952 3.45194 0.249876 3.74457 0.211626 4.03935C0.05933 5.32714 -0.129566 6.92958 0.124733 8.43404H0.124497C0.227208 9.0193 0.293325 9.61081 0.322835 10.2045C0.320002 10.925 0.461911 11.6383 0.739586 12.3009C0.828841 12.4921 0.932731 12.6762 1.05032 12.8506C1.06944 12.879 1.09022 12.9059 1.11265 12.9313C1.20049 13.0306 1.28832 13.1197 1.37923 13.2062C1.40639 13.2319 1.43543 13.2557 1.46589 13.2773C1.57993 13.3583 1.69918 13.4318 1.8229 13.4966C1.86446 13.5185 1.90766 13.5365 1.95229 13.5505C2.06114 13.5848 2.16031 13.6151 2.2557 13.636L2.25547 13.6362C2.31025 13.648 2.36597 13.654 2.42193 13.654H2.91613C2.98461 13.653 3.05308 13.6559 3.12108 13.6624C3.20042 13.6715 3.2833 13.6807 3.33005 13.6922C3.35508 13.7018 3.40938 13.721 3.45354 13.7419V13.7422C3.54563 13.8034 3.62662 13.8801 3.69368 13.9687C3.87242 14.3961 3.9553 14.8584 3.93664 15.3226C3.9612 16.0537 3.95057 16.8458 3.90571 17.6722C3.85471 18.5102 3.7775 19.3674 3.70265 20.1958L3.67762 20.4743C3.61741 21.1395 3.55508 21.8271 3.51233 22.5054C3.46605 23.196 3.41505 24.105 3.43111 25.0021C3.42992 25.3418 3.44763 25.6813 3.484 26.0191C3.61056 26.9411 3.8429 27.845 4.17605 28.7123C4.17983 28.7214 4.18337 28.7305 4.18738 28.7392C4.3071 29.0196 4.45184 29.2884 4.61948 29.5421C4.63577 29.5666 4.65348 29.5904 4.67237 29.613C4.7026 29.649 4.73235 29.682 4.76304 29.7141L4.78736 29.7411C5.04804 30.0279 5.47331 30.0837 5.79676 29.8734L5.82557 29.8547V29.8545C5.85768 29.8338 5.88814 29.8107 5.91695 29.7857C6.01754 29.6959 6.11269 29.5995 6.20123 29.4972C6.23122 29.4631 6.25837 29.4266 6.28222 29.3876C6.33063 29.3091 6.37289 29.2305 6.41634 29.1496C6.43712 29.1116 6.45483 29.0717 6.46923 29.0309C6.57194 28.7257 6.64679 28.4115 6.69213 28.0924L6.69614 28.0617C6.8083 26.6415 6.77973 25.2135 6.61114 23.7991L6.56888 23.2926C6.52543 22.7814 6.47915 22.1868 6.47915 21.6243C6.48104 21.4821 6.47915 21.3394 6.47915 21.1962V20.7813C6.47915 20.4315 6.47915 20.0774 6.48718 19.728H6.48694C6.49804 18.9417 6.56722 18.1575 6.69473 17.3817C6.74313 17.072 6.81609 16.7667 6.9129 16.469C6.99625 16.2042 7.10723 15.9493 7.24442 15.7089C7.32824 15.5736 7.42316 15.4456 7.528 15.3261C7.6215 15.2267 7.72421 15.1368 7.83495 15.0573C7.91193 15.0006 7.99504 14.9533 8.08312 14.9165C8.27815 14.8245 8.48051 14.7491 8.68783 14.6907C8.95747 14.622 9.25357 14.5732 9.53976 14.5261L9.61319 14.5136C10.1407 14.4435 10.6609 14.3243 11.1671 14.1578C11.1971 14.1472 11.2264 14.1347 11.2549 14.1206C11.4571 14.0208 11.6516 13.9058 11.8367 13.776C11.8599 13.7594 11.8823 13.7414 11.9036 13.7222C12.074 13.5725 12.2332 13.4101 12.3796 13.2359C12.3945 13.2182 12.4086 13.1997 12.4218 13.1821C12.5947 12.9363 12.7451 12.6752 12.8714 12.4018C12.8799 12.383 12.8877 12.364 12.8953 12.3443C13.3323 11.1748 13.3524 9.97235 13.3713 8.80948C13.3739 8.6586 13.3765 8.50772 13.38 8.35805V8.35564C13.388 7.96764 13.4017 7.57915 13.415 7.19044C13.4983 5.84139 13.4712 4.48786 13.334 3.14337C13.2801 2.4793 13.074 1.83738 12.7319 1.26889L12.732 1.26898Z" fill="#2D2D2D"/>
<path d="M24.9723 19.4616L24.9692 19.4159C24.8934 18.25 24.8146 17.0442 24.7884 15.8609C24.7777 15.4066 24.7702 14.9499 24.765 14.4938C24.7567 13.8968 24.7459 13.3022 24.7324 12.7039C24.7045 11.6831 24.6682 10.7014 24.6207 9.70051C24.5614 8.53887 24.5031 7.58629 24.4356 6.69785L24.412 6.40715C24.3591 5.68471 24.2989 4.8659 24.1985 4.04691L24.1988 4.04667C24.0998 3.42129 23.9336 2.80864 23.7032 2.22028C23.6989 2.20971 23.6947 2.19938 23.6902 2.18905C23.5126 1.77438 23.2933 1.3794 23.0359 1.01062C23.0248 0.994766 23.0132 0.97915 23.0009 0.964254L23.0012 0.964494C22.8472 0.775176 22.6779 0.59955 22.4947 0.439785C22.4756 0.423449 22.456 0.407592 22.4354 0.392936C22.3124 0.305243 22.1833 0.227402 22.0492 0.159409C22.0173 0.143072 21.9845 0.129137 21.9509 0.117365C21.8338 0.0760414 21.7141 0.0428892 21.5925 0.0186195C21.5599 0.0121326 21.5266 0.00780817 21.4933 0.0054058C21.3748 -0.00180193 21.2556 -0.00180193 21.137 0.0054058C21.0962 0.00756812 21.0558 0.0128533 21.0159 0.0212622C20.8452 0.0580211 20.6773 0.10703 20.5134 0.167336C20.4863 0.177426 20.4598 0.188719 20.4341 0.201452C20.3094 0.263436 20.1914 0.328305 20.0797 0.396538C20.0362 0.423206 19.9951 0.453959 19.9574 0.488316C19.8539 0.584417 19.7564 0.686767 19.6653 0.794879C19.645 0.818424 19.6263 0.843171 19.6089 0.868876C19.4157 1.1603 19.2485 1.46855 19.109 1.79003C19.1031 1.803 19.0979 1.81694 19.0929 1.82871C18.8771 2.39186 18.7201 2.96249 18.5685 3.51363L18.5437 3.60348C18.4953 3.79184 18.4443 3.97755 18.3902 4.16591C18.0486 5.39724 17.7798 6.64818 17.5858 7.91216C17.5218 8.31002 17.462 8.71098 17.4025 9.11175L17.2146 10.3829C17.1551 10.7849 17.0937 11.2005 17.0165 11.596C16.9522 11.9287 16.8668 12.2744 16.7903 12.5762C16.672 13.0543 16.5596 13.5226 16.4854 13.9964C16.4826 14.0134 16.4805 14.0303 16.4788 14.0473C16.4514 14.3202 16.4455 14.5951 16.4611 14.869C16.4635 14.9052 16.4682 14.9413 16.475 14.9766C16.5001 15.1015 16.5329 15.2248 16.5735 15.3454C16.587 15.3853 16.6033 15.4239 16.6226 15.4614C16.6552 15.5239 16.6916 15.59 16.7284 15.6498C16.7558 15.6945 16.7874 15.7365 16.8231 15.7747C16.876 15.8316 16.9282 15.8847 16.9796 15.934C17.0172 15.9698 17.0583 16.0015 17.1019 16.0291C17.1997 16.0911 17.2946 16.1485 17.3957 16.2C17.4261 16.2153 17.4575 16.2288 17.4896 16.2403C17.7843 16.3427 18.0873 16.4188 18.395 16.4681C18.4077 16.4702 18.4214 16.4722 18.4339 16.4738V16.4736C18.9149 16.5272 19.3985 16.5524 19.882 16.549C20.0901 16.549 20.2981 16.5464 20.4851 16.5409H20.5115C20.5342 16.5428 20.5557 16.5524 20.5729 16.5678C20.7132 16.6898 20.8907 16.7581 21.0754 16.7609C21.1077 16.7607 21.1396 16.7691 21.168 16.785C21.1906 16.7996 21.2114 16.8179 21.2289 16.8388C21.355 17.6729 21.4043 18.5174 21.3764 19.361C21.3427 20.2547 21.2501 21.1775 21.1649 21.9747L21.1576 22.046C20.9892 23.6807 20.8138 25.3713 21.0156 27.1173C21.0156 27.1281 21.018 27.1389 21.0197 27.1492L21.0194 27.149C21.0851 27.6177 21.1979 28.0785 21.3561 28.5239C21.3635 28.5441 21.3717 28.564 21.3805 28.5835C21.4872 28.8187 21.6144 29.0438 21.7606 29.2562C21.7734 29.2745 21.7871 29.2923 21.8008 29.3101C21.8914 29.4196 21.9896 29.5222 22.095 29.6173C22.128 29.6469 22.1634 29.674 22.2007 29.6981C22.2692 29.742 22.3375 29.7822 22.4059 29.8184L22.4062 29.8182C22.439 29.836 22.4732 29.8513 22.5084 29.8643C22.5549 29.8809 22.604 29.8958 22.6699 29.915V29.9148C22.741 29.9357 22.8146 29.946 22.8888 29.946H23.0475C23.1103 29.946 23.1731 29.9386 23.2342 29.9234C23.34 29.8965 23.443 29.8677 23.5516 29.8319C23.5955 29.8177 23.638 29.7999 23.6786 29.7781C23.7471 29.7415 23.8108 29.7048 23.8777 29.6647V29.6649C23.9221 29.6378 23.9636 29.6065 24.0019 29.5712C24.0812 29.4989 24.1558 29.4213 24.2255 29.3389C24.2453 29.3153 24.2637 29.2906 24.2807 29.2646C24.3936 29.0936 24.4928 28.9136 24.5775 28.7265C24.5863 28.7073 24.5945 28.6878 24.6016 28.6681C24.7865 28.1477 24.9157 27.6086 24.987 27.0599L24.9893 27.0419C25.2963 24.4937 25.131 21.9356 24.9723 19.4614L24.9723 19.4616Z" fill="#2D2D2D"/>
</svg>
