<svg width="29" height="30" viewBox="0 0 29 30" fill="none" xmlns="http://www.w3.org/2000/svg">
<path fill-rule="evenodd" clip-rule="evenodd" d="M29 1.96348V27.6619C29 28.3532 28.242 28.7104 27.5644 28.7427C26.7238 28.7821 25.8595 28.655 25.0308 28.781C19.549 29.6168 21.226 27.6588 21.2927 26.9452C21.6048 23.6088 21.4533 13.2962 21.4555 9.28001C21.4561 7.96323 21.3453 7.11383 21.2942 6.06893C21.2416 4.99506 21.3021 3.7698 21.2921 2.67402C21.2761 0.923448 21.4001 1.12813 21.9367 0C23.5464 0 24.6475 0.193886 26.11 0.179263C27.8299 0.162206 29 -0.00603191 29 1.96348Z" fill="#2D2D2D"/>
<path fill-rule="evenodd" clip-rule="evenodd" d="M1.46203e-05 28.2982C1.46203e-05 29.4183 1.21208 28.8307 2.07881 28.8307C2.55883 28.8307 7.1996 29.0041 7.35586 28.8307C7.52896 28.639 7.99587 14.4916 7.99587 12.8644C7.99587 9.31676 8.17116 9.31641 6.23678 9.31641C5.31416 9.31641 1.23081 9.40533 0.86895 9.74753C0.392994 10.197 0.317197 14.9425 0.32063 15.7034C0.327492 17.0034 0.155948 17.5525 0.154702 18.712C0.153143 19.7649 0.193378 20.8721 0.165307 21.9174L1.46203e-05 28.2982Z" fill="#2D2D2D"/>
<path fill-rule="evenodd" clip-rule="evenodd" d="M17.2739 15.1617C9.68487 14.8013 11.8433 14.3149 11.1513 18.8199C10.951 20.1282 10.7958 22.1852 10.6283 23.5293L10.2244 28.2106C10.2948 29.2893 10.8257 29.133 11.5426 28.9446C12.6043 28.6655 17.4674 29.0649 18.0417 28.5317C18.4181 28.182 18.2714 25.0759 18.2905 23.8777C18.3127 22.4774 18.1148 20.6119 18.1436 19.1781C18.1594 18.4076 18.298 15.2103 17.2739 15.1617Z" fill="#2D2D2D"/>
</svg>
