<svg width="24" height="30" viewBox="0 0 24 30" fill="none" xmlns="http://www.w3.org/2000/svg">
<path fill-rule="evenodd" clip-rule="evenodd" d="M22.7594 13.9622C22.7594 11.8806 22.5363 9.79866 22.5363 7.62261L22.6478 1.94525C22.5363 1.18821 21.4211 0.715204 20.5291 1.18821C19.8601 1.66138 19.4141 2.03982 18.7451 2.51298C15.9574 4.50006 11.8313 6.96039 9.37824 8.75808C7.59415 10.1774 5.69842 11.4075 3.91442 12.7322L1.12674 14.53C1.01529 14.7193 0.903657 14.8139 0.792211 15.0032C0.569127 15.1925 -0.322823 15.4764 0.123152 16.4225C0.346235 16.8957 1.46127 17.1796 2.13033 17.558C6.14468 19.4505 7.81732 20.4912 11.3858 22.5731C12.8354 23.4247 13.9506 24.1818 15.2887 24.9387C17.1844 25.9796 19.3031 27.3042 21.087 28.5344C21.533 28.9128 22.3137 29.6698 23.3173 29.2914C24.6554 28.7237 23.6518 26.3582 23.4288 24.7495C23.2057 23.0463 22.9828 21.3431 22.8711 19.6399C22.7597 18.7883 22.7597 17.6528 22.7597 16.8012L22.7594 13.9622ZM21.0868 25.7902C20.9753 25.2224 20.8637 24.087 20.7522 23.4247C20.3063 20.3967 20.3063 18.5989 20.3063 15.3819C20.3063 13.5841 20.0832 11.7861 20.0832 9.98837C20.0832 8.19059 20.1946 6.10878 20.0832 4.40549L11.7199 9.89348C10.2704 10.9344 9.15516 11.6913 7.59415 12.8267L3.46835 15.76C3.80288 15.9493 4.36049 16.1384 4.58338 16.3277C8.48629 18.1255 13.1698 21.059 16.8496 23.235C17.5187 23.6135 18.4108 24.0866 19.0799 24.5598C19.4144 24.7491 20.9753 25.7902 21.0868 25.7902Z" fill="#2D2D2D"/>
<path d="M21.0868 25.7902C20.9753 25.2224 20.8637 24.087 20.7522 23.4247C20.3063 20.3967 20.3063 18.5989 20.3063 15.3819C20.3063 13.5841 20.0832 11.7861 20.0832 9.98837C20.0832 8.19059 20.1946 6.10878 20.0832 4.40549L11.7199 9.89348C10.2704 10.9344 9.15516 11.6913 7.59415 12.8267L3.46835 15.76C3.80288 15.9493 4.36049 16.1384 4.58338 16.3277C8.48629 18.1255 13.1698 21.059 16.8496 23.235C17.5187 23.6135 18.4108 24.0866 19.0799 24.5598C19.4144 24.7491 20.9753 25.7902 21.0868 25.7902Z" fill="#2D2D2D"/>
</svg>
