<svg width="24" height="29" viewBox="0 0 24 29" fill="none" xmlns="http://www.w3.org/2000/svg">
<path fill-rule="evenodd" clip-rule="evenodd" d="M22.7594 12.9632C22.7594 10.8815 22.5363 8.79964 22.5363 6.62359L22.6478 0.946224C22.5363 0.189189 21.4211 -0.283819 20.5291 0.189186C19.8601 0.662354 19.4141 1.04079 18.7451 1.51396C15.9574 3.50104 11.8313 5.96136 9.37824 7.75906C7.59415 9.1784 5.69842 10.4084 3.91442 11.7332L1.12674 13.531C1.01529 13.7203 0.903657 13.8149 0.792211 14.0042C0.569127 14.1935 -0.322823 14.4773 0.123152 15.4235C0.346235 15.8967 1.46127 16.1805 2.13033 16.559C6.14468 18.4515 7.81732 19.4922 11.3858 21.5741C12.8354 22.4257 13.9506 23.1828 15.2887 23.9396C17.1844 24.9805 19.3031 26.3051 21.087 27.5353C21.533 27.9138 22.3137 28.6708 23.3173 28.2924C24.6554 27.7246 23.6518 25.3591 23.4288 23.7505C23.2057 22.0473 22.9828 20.3441 22.8711 18.6409C22.7597 17.7893 22.7597 16.6538 22.7597 15.8022L22.7594 12.9632Z" fill="#2D2D2D"/>
</svg>
