<svg width="39" height="38" viewBox="0 0 39 38" fill="none" xmlns="http://www.w3.org/2000/svg">
<path d="M2.84707 30.656C5.98501 24.8868 11.9272 20.6068 16.5862 16.0594C16.998 15.6576 17.4068 15.2548 17.8111 14.8505L27.1285 5.53304C28.2382 4.42338 29.2999 3.16822 30.5024 2.15914C32.4745 0.504118 32.942 1.05154 34.9374 3.04696L35.5237 3.6332C36.256 4.3655 36.9887 5.09823 37.1403 6.14012C37.5132 7.37241 32.2435 11.4875 31.108 12.6231L21.7492 21.9819L13.7956 29.9354C11.7682 31.9628 9.48618 35.2239 6.7584 36.3465C3.69367 37.6067 1.58953 32.9703 2.8472 30.6557L2.84707 30.656Z" fill="#2D2D2D"/>
<path d="M15.992 21.4255C20.5394 26.0845 24.8195 32.0267 30.5886 35.1646L30.5883 35.1645C32.9019 36.4232 37.5393 34.318 36.2791 31.2533C35.1565 28.5255 31.8954 26.2435 29.868 24.2161L21.9145 16.2626L12.5557 6.90375C11.4202 5.76823 7.30503 0.498559 6.07274 0.871439C5.03084 1.02301 4.29812 1.75574 3.56582 2.48803L3.56582 2.48804L2.97958 3.07428C0.984155 5.0697 0.436734 5.53723 2.09175 7.5093C3.10083 8.7118 4.356 9.77354 5.46565 10.8832L14.7831 20.2007C15.1874 20.605 15.5902 21.0137 15.992 21.4255Z" fill="#2D2D2D"/>
</svg>
