<svg width="132" height="125" viewBox="0 0 132 125" fill="none" xmlns="http://www.w3.org/2000/svg">
<path d="M131.57 62.902C131.33 61.6956 130.729 60.328 130.094 58.883C129.344 57.1752 128.569 55.4131 128.558 54.2121C128.558 54.0548 128.558 53.5908 127.831 52.8226C126.413 50.3505 123.8 48.899 121.489 47.6191L120.991 47.3471C120.09 46.7427 118.476 46.1923 118.295 46.1317C118.029 46.0428 117.704 45.9242 117.38 45.8043C116.576 45.5104 116.135 45.3532 115.831 45.2887C113.997 44.2744 111.749 43.7124 109.76 43.2175L109.209 43.0821C108.916 42.9842 108.527 42.8862 108.135 42.7883C107.915 42.7328 107.601 42.6529 107.359 42.5833C107.33 29.0034 106.288 15.0997 95.4462 6.36987C93.9982 5.20338 93.376 4.89147 91.7115 4.05241C79.7448 -1.97338 58.4943 -1.16398 47.9769 5.71384C44.7762 7.80574 42.1145 11.1015 39.7678 14.0108L39.1379 14.7906C36.6952 17.4934 32.149 22.5292 30.9636 27.3136C30.2517 29.4648 29.7883 31.3313 29.5399 33.1487V34.8204C26.9 34.4273 24.4395 34.5768 22.0607 35.2754C21.0903 35.2935 20.3029 35.501 19.4707 35.7188L18.9458 35.8542L18.5349 36.0836C18.4388 36.1635 18.0765 36.3272 17.7769 36.429L15.2996 37.2604L14.954 37.4705C14.8771 37.5349 14.7555 37.5942 14.6403 37.6612C14.3689 37.8133 14.036 37.9989 13.8158 38.276C8.6859 40.917 6.71811 43.6881 4.30457 48.8154C0.037303 57.8828 -3.21821 71.0391 5.48244 82.1912C6.9125 84.2058 8.37454 85.6775 10.4013 87.134C11.2104 87.6792 13.0553 88.4036 13.6186 88.6175C21.3744 91.546 27.6901 92.0254 36.1424 90.3215L36.5162 90.2493C37.9949 89.9671 40.2315 89.5365 41.239 87.491C41.577 86.4715 41.4592 85.3489 40.9202 84.4105C40.3992 83.507 39.5619 82.8793 38.7323 82.7182C37.7554 82.3895 36.5072 82.3818 35.5162 82.6808C35.3216 82.7027 35.0925 82.7582 34.7788 82.8355C34.5893 82.8832 34.4024 82.9373 34.3141 82.9476C32.8085 82.9476 31.1864 83.0675 29.4683 83.1977C22.0658 83.7519 14.4149 84.3177 11.7316 76.2503C11.4948 75.776 11.0723 75.1122 10.9135 74.8647L10.491 73.6802C9.34518 70.485 8.44132 67.9613 7.97657 64.7468L7.96377 61.0258C9.06992 54.6212 14.2804 47.6158 19.7896 45.0949C22.4653 44.0199 25.4943 43.4657 28.2585 42.9437H31.1289L31.3248 43.0133C32.1582 43.3187 33.4167 43.775 34.7238 43.1241L34.962 42.9501C36.2153 41.6883 36.6071 41.2062 36.6071 40.6352C36.6109 37.5792 40.0727 30.2028 41.2083 27.7795C43.7382 22.3853 48.0117 18.0083 54.272 14.3956C60.8807 10.5805 71.9907 7.3502 80.3496 8.54895C87.9825 10.3908 92.3586 13.3955 95.4184 18.8359C97.0738 22.5853 97.4246 26.7071 97.7638 30.6915C98.0007 33.4729 98.2465 36.346 98.9251 39.1171C98.9583 39.4225 99.0813 39.7564 99.1926 40.0077V45.0667C99.1926 46.103 99.9915 47.4912 100.116 47.6974C100.582 48.6357 101.812 49.3111 102.177 49.4967L102.438 49.5818C103.35 49.7352 104.274 49.9788 105.164 50.2134C105.842 50.3925 106.49 50.5627 107 50.6606C107.831 50.9197 108.706 51.162 109.602 51.4095C112.562 52.2305 115.626 53.0786 117.983 54.6576C120.81 56.9325 124.774 64.7409 124.459 70.8644C124.331 73.37 123.473 75.1526 121.915 76.1619C121.025 76.7381 120.149 77.3451 119.275 77.9484C116.349 79.972 113.585 81.8809 110.322 82.7031C109.455 82.9532 108.375 83.1478 107.33 83.3412C106.137 83.559 105.006 83.7639 104.097 84.0539H103.692L103.468 84.0823C103.236 84.1416 102.655 84.1764 102.091 84.2099C100.127 84.3285 97.6821 84.478 96.6231 85.8095C95.5951 87.1912 95.4965 89.6776 97.1237 91.2898C97.751 91.7113 98.5589 91.7912 99.1926 91.8299V92H100.111C101.52 92 102.977 92 104.188 91.6971C105.239 91.4316 106.761 91.1815 106.993 91.1699L107.217 91.1416C108.25 90.8786 110.391 90.6092 110.429 90.6041C116.372 89.7508 119.522 87.7479 124.821 84.3787C126.269 83.5048 127.764 82.6013 128.706 81.0197C130.382 78.2085 130.779 76.0768 131.281 73.379L131.573 71.8491C132.144 68.9645 132.142 65.786 131.569 62.9028L131.57 62.902Z" fill="black"/>
<path d="M83.2535 87.3155C81.673 86.5988 79.6291 86.4142 77.8226 86.2513C77.0018 86.1787 76.2136 86.1074 75.537 85.9941C75.7032 84.2463 76.5928 82.0721 77.5291 79.7856C79.342 75.3529 81.3978 70.3284 78.629 66.6752C76.8525 64.3316 72.3554 64.9745 68.74 65.4875C67.6544 65.6428 66.631 65.7892 65.935 65.807C58.3834 66.0018 57.3834 69.4338 55.5665 75.6638C54.4575 79.4702 52.2472 87.0571 52.2161 87.1614C51.7265 88.8443 51.1045 90.4685 50.5058 92.0396C49.7487 94.023 48.9644 96.0725 48.4177 98.2928C48.1514 99.3659 47.8515 100.582 48.0826 101.844C48.3657 103.397 49.5215 104.627 50.8981 104.837C51.5889 104.941 52.2175 104.794 52.7746 104.661C53.0538 104.595 53.3356 104.526 53.6161 104.506C54.2004 104.448 54.8342 104.65 55.5043 104.85L55.9432 104.977C57.3301 105.365 58.8937 105.222 60.4053 105.083C63.1104 104.833 64.8156 104.789 65.7764 106.282C66.2023 106.944 65.966 109.687 65.8244 111.328C65.7257 112.47 65.64 113.456 65.6816 114.122C65.8829 117.426 66.3218 120.742 66.9828 123.98C67.0958 124.54 67.4763 124.919 67.9958 124.991C68.0373 124.999 68.0802 125 68.1217 125C70.158 125 74.0603 118.538 74.0955 118.471C77.6421 111.887 79.8914 106.677 81.6172 101.046C81.8834 100.175 82.5847 99.0168 83.3262 97.7884C84.8975 95.1902 86.6766 92.2418 85.7403 89.8041C85.3247 88.7132 84.4871 87.8768 83.2534 87.3154L83.2535 87.3155Z" fill="black"/>
</svg>
