<svg width="28" height="28" viewBox="0 0 28 28" fill="none" xmlns="http://www.w3.org/2000/svg">
<path fill-rule="evenodd" clip-rule="evenodd" d="M23.1628 0.514089C23.1188 3.47082 22.2141 5.77475 22.9706 7.81302C23.9143 10.3544 28.1329 10.818 27.9968 13.8482C26.7055 14.0417 26.6296 13.2118 25.6824 13.1162C23.3879 16.9368 25.4156 22.7926 24.008 27.4592C22.1796 28.4953 18.4921 27.5997 16.9944 28C15.7854 24.2956 18.0709 15.3371 12.9025 16.051C10.3752 16.3989 10.0986 20.4337 10.1255 23.0662C10.1467 25.1517 11.1394 26.1771 9.74028 27.8511C7.69891 28.054 5.84437 27.6786 3.51546 27.9522C1.06313 22.5616 3.97865 17.7819 3.1777 11.2873C1.34569 11.2343 1.89922 13.379 0.014026 13.2766C-0.149266 11.8494 1.14065 10.451 2.45474 9.21873C4.47258 7.3276 6.85655 5.26702 9.59443 3.88869C11.0014 2.79257 11.8002 0.66533 13.5706 0.546508C15.7773 0.399152 16.7591 3.03427 18.9332 3.62252C18.564 0.95627 19.5797 -0.964919 23.1628 0.514089ZM21.7233 5.96182C21.7637 4.44031 21.8036 2.92075 21.844 1.39981C21.238 1.38736 20.635 1.37552 20.0291 1.36287C19.7891 3.45475 19.8429 6.38525 21.7233 5.96182ZM23.4539 19.004C23.4901 16.6499 24.2215 13.9712 23.6411 11.9343C23.2502 10.5659 20.3737 8.24678 19.1023 7.04885C17.31 5.35928 15.5915 3.7155 13.7702 2.83236C13.6744 2.88857 13.3246 2.74864 13.2523 2.82111C11.223 4.87989 5.63271 7.94203 4.77447 9.72277C3.86836 11.6009 4.93845 14.7569 4.83399 17.255C4.70628 20.3349 4.43238 23.1016 4.08826 25.9113C5.8557 25.9056 7.94384 26.1961 9.02235 25.5565C8.49166 20.6611 9.54164 14.1728 14.2458 14.2525C19.5033 14.3418 17.7878 22.8692 17.8261 25.9625C19.8333 26.1812 21.1239 25.7353 23.0127 25.8421C23.3495 23.6703 23.4176 21.3556 23.4539 19.004Z" fill="#2D2D2D"/>
<path d="M23.4539 19.004C23.4901 16.6499 24.2215 13.9712 23.6411 11.9343C23.2502 10.5659 20.3737 8.24678 19.1023 7.04885C17.31 5.35928 15.5915 3.7155 13.7702 2.83236C13.6744 2.88857 13.3246 2.74864 13.2523 2.82111C11.223 4.87989 5.63271 7.94203 4.77447 9.72277C3.86836 11.6009 4.93845 14.7569 4.83399 17.255C4.70628 20.3349 4.43238 23.1016 4.08826 25.9113C5.8557 25.9056 7.94384 26.1961 9.02235 25.5565C8.49166 20.6611 9.54164 14.1728 14.2458 14.2525C19.5033 14.3418 17.7878 22.8692 17.8261 25.9625C19.8333 26.1812 21.1239 25.7353 23.0127 25.8421C23.3495 23.6703 23.4176 21.3556 23.4539 19.004Z" fill="#2D2D2D"/>
<path d="M21.7233 5.96182C21.7637 4.44031 21.8036 2.92075 21.844 1.39981C21.238 1.38736 20.635 1.37552 20.0291 1.36287C19.7891 3.45475 19.8429 6.38525 21.7233 5.96182Z" fill="#2D2D2D"/>
</svg>
