<svg width="24" height="29" viewBox="0 0 24 29" fill="none" xmlns="http://www.w3.org/2000/svg">
<path fill-rule="evenodd" clip-rule="evenodd" d="M1.24059 15.4323C1.24059 17.514 1.46368 19.5959 1.46368 21.7719L1.35223 27.4493C1.46368 28.2063 2.5789 28.6793 3.47085 28.2063C4.13991 27.7332 4.58588 27.3547 5.25494 26.8815C8.04262 24.8945 12.1687 22.4341 14.6218 20.6364C16.4059 19.2171 18.3016 17.9871 20.0856 16.6623L22.8733 14.8645C22.9847 14.6752 23.0963 14.5806 23.2078 14.3913C23.4309 14.202 24.3228 13.9182 23.8768 12.972C23.6538 12.4988 22.5387 12.215 21.8697 11.8365C17.8553 9.94402 16.1827 8.90328 12.6142 6.82139C11.1646 5.96979 10.0494 5.21275 8.7113 4.45588C6.81557 3.41497 4.69695 2.09036 2.91295 0.86016C2.46698 0.481723 1.68628 -0.275313 0.682693 0.103124C-0.655424 0.67086 0.348163 3.03637 0.571247 4.64501C0.79433 6.34822 1.01722 8.05143 1.12886 9.75464C1.24031 10.6062 1.2403 11.7417 1.2403 12.5933L1.24059 15.4323ZM2.91324 3.60435C3.02468 4.17209 3.13632 5.30756 3.24777 5.96987C3.69374 8.99785 3.69374 10.7956 3.69374 14.0127C3.69374 15.8104 3.91683 17.6084 3.91683 19.4062C3.91683 21.2039 3.80538 23.2857 3.91683 24.989L12.2801 19.5011C13.7296 18.4601 14.8448 17.7033 16.4059 16.5678L20.5317 13.6346C20.1971 13.4453 19.6395 13.2561 19.4166 13.0668C15.5137 11.269 10.8302 8.33554 7.15038 6.15949C6.48133 5.78106 5.58918 5.30789 4.92013 4.83472C4.5856 4.64542 3.02468 3.60435 2.91324 3.60435Z" fill="white"/>
<path d="M2.91324 3.60435C3.02468 4.17209 3.13632 5.30756 3.24777 5.96987C3.69374 8.99785 3.69374 10.7956 3.69374 14.0127C3.69374 15.8104 3.91683 17.6084 3.91683 19.4062C3.91683 21.2039 3.80538 23.2857 3.91683 24.989L12.2801 19.5011C13.7296 18.4601 14.8448 17.7033 16.4059 16.5678L20.5317 13.6346C20.1971 13.4453 19.6395 13.2561 19.4166 13.0668C15.5137 11.269 10.8302 8.33554 7.15038 6.15949C6.48133 5.78106 5.58918 5.30789 4.92013 4.83472C4.5856 4.64542 3.02468 3.60435 2.91324 3.60435Z" fill="white"/>
</svg>
