<svg width="41" height="35" viewBox="0 0 41 35" fill="none" xmlns="http://www.w3.org/2000/svg">
<path d="M33.4083 12.0235C33.497 12.5756 33.5848 13.5873 33.5848 13.5873C33.5848 14.599 33.4962 15.9785 33.6734 17.0827C33.7621 17.4504 33.8499 17.9105 33.9381 18.2783C33.9381 18.5541 34.0268 19.0142 34.1146 19.1062C34.1146 20.2099 34.2032 21.6813 34.7323 22.7854C34.8209 22.9693 35.2621 23.2451 35.4385 23.2451H35.9683C36.3213 23.2451 37.0276 23.3375 37.0276 23.3375L35.9683 23.2451C36.7629 23.3375 37.3809 23.429 38.1754 23.3375C38.4401 23.2451 38.8817 23.1536 39.0581 23.1536H39.2346C39.4111 23.1536 39.6758 22.9697 39.6758 22.9697L39.7644 22.8774C40.0291 22.8774 40.2056 22.3253 40.2942 22.3253L40.3829 22.2329C40.7358 22.0491 41.0005 21.6809 41.0005 21.1292C40.9119 20.8534 40.9119 20.3014 40.9119 20.3014C40.8233 18.9219 40.8233 17.6339 40.7354 16.2543V15.7022C40.7354 12.1149 40.4707 8.52791 40.2942 5.03253C40.2056 4.02077 40.2056 3.00857 39.9413 2.08915C39.8527 1.81333 39.7648 1.53709 39.5883 1.26127L39.3236 0.985442C39.0589 0.801559 38.7938 0.709617 38.5291 0.617676H38.0879C36.8519 0.617676 35.528 1.07738 34.2918 1.16974C33.9389 1.16974 33.762 1.35362 33.4973 1.62944C33.4087 1.7218 33.3208 1.99721 33.3208 1.99721C32.7032 2.6408 32.8796 3.83646 32.791 4.57234C32.791 6.41159 33.144 8.25158 33.3208 10.0913C33.4083 10.7353 33.4083 11.3797 33.4083 12.0233L33.4083 12.0235Z" fill="#2D2D2D"/>
<path d="M0.033002 17.2544C0.0417068 17.3987 0.0476419 17.5966 0.0539726 17.8329C0.0971009 19.4252 0.151704 22.7643 1.07004 23.163C1.92073 23.5176 3.19717 23.4289 4.13291 23.4289C4.47319 23.4289 5.23922 23.3403 5.23922 23.3403H5.74965C5.91979 23.3403 6.17499 23.2516 6.26007 23.3403C8.13195 23.3403 10.0039 23.3403 11.9609 23.5176C12.4713 23.6062 13.0672 23.6948 13.6627 23.7835H14.5134L14.1237 23.7398C14.86 23.7521 15.5845 23.7765 16.324 23.76C16.1021 25.6302 15.958 27.5097 15.8924 29.3927C15.8429 30.7957 15.4512 32.9882 16.2129 34.1662C16.5254 34.649 17.0857 35.3207 17.6542 34.8271C17.6424 34.7847 17.5708 34.8053 17.5652 34.7711C18.4598 34.8362 19.1669 34.0648 19.8712 33.6096C20.7109 33.0666 21.5251 32.4812 22.311 31.8566C22.9393 31.3565 23.5495 30.8317 24.1591 30.3076C25.3327 29.2975 26.5063 28.2873 27.6799 27.2777C28.4134 26.6465 30.196 25.6462 30.5098 24.6712C30.5948 24.5826 30.5948 24.4053 30.5948 24.4053V24.3166C30.6573 23.8598 30.7203 23.4034 30.7828 22.9466C30.856 22.7351 30.8896 22.5141 30.8504 22.2899V21.4797C30.9355 21.3911 30.9355 21.1251 30.9355 21.1251C31.1057 20.8592 30.8504 20.2387 30.8504 20.1501C30.9355 20.0614 30.9355 19.7955 30.9355 19.7955V19.7068C30.9355 18.5541 30.7654 17.6677 30.7654 16.604C30.6803 16.0721 30.5952 14.9194 30.5952 14.9194V14.1216C30.5102 13.1465 30.5102 12.1711 30.4251 11.1073V9.24533C30.5402 7.32238 30.577 5.34792 30.5177 3.42835C30.4995 2.84619 30.4678 2.25045 30.2478 1.7149C30.0682 1.27746 29.7726 0.904749 29.481 0.538587C29.3413 0.364192 29.1918 0.181544 28.9856 0.106923C28.8954 0.0743523 28.8009 0.0673425 28.7047 0.0669298C28.3098 -0.0530449 27.7848 0.0248761 27.4473 0.0248761C26.0858 0.202163 24.8097 0.202163 23.4482 0.202163C22.5125 0.202163 21.3211 0.468087 20.3003 0.556736H18.4284C17.6628 0.556736 16.9818 0.82266 16.2162 0.82266C14.089 0.999947 11.7066 1.17723 9.49452 0.999947C8.28216 0.933568 6.93527 0.773602 5.75147 0.81029C4.46557 0.84987 4.35597 3.23374 4.04925 4.19232C3.87911 4.72418 3.53883 5.87695 3.53883 5.87695C3.53883 5.96559 3.45376 6.23152 3.45376 6.23152C3.11348 6.94066 2.85828 7.65017 2.60307 8.44799C2.518 8.62528 2.43293 9.06849 2.43293 9.06849C1.97909 10.1722 1.56403 11.233 1.19129 12.366C0.803136 13.5451 0.114248 14.5103 0.0189324 15.8247C-0.017074 16.2997 0.00429159 16.7779 0.0331751 17.2546L0.033002 17.2544Z" fill="#2D2D2D"/>
</svg>
