<svg width="33" height="34" viewBox="0 0 33 34" fill="none" xmlns="http://www.w3.org/2000/svg">
<path d="M0.0019305 32.0458C0.0240624 33.0596 0.234946 33.6468 1.24595 33.6468C1.44889 33.6468 1.68775 33.6273 1.9692 33.6043L2.05898 33.5962C4.04127 33.4334 6.50707 33.2305 8.22134 31.9246C9.24819 31.1426 10.1572 30.1981 11.038 29.2855C11.9053 28.3856 12.8023 27.456 13.8091 26.6825C15.8728 25.0955 17.7841 23.3149 19.6324 21.5913C20.2871 20.9811 20.9428 20.3691 21.6084 19.7631C22.869 18.614 23.9902 17.3621 24.9424 16.2803C25.0526 16.1561 25.1838 16.0234 25.3224 15.8848C25.915 15.2899 26.6532 14.5495 26.5113 13.6412C26.4933 13.5247 26.4628 13.4077 26.4219 13.2912C26.135 12.47 25.3371 11.6965 24.6321 11.0135C24.3474 10.738 24.0784 10.4768 23.8843 10.251C23.4249 9.41754 22.4001 7.93677 22.3605 7.88027C22.1847 7.61065 21.9199 7.162 21.9191 7.16031L21.8443 7.05782C21.8164 7.01189 21.755 6.91025 21.6355 6.85965L21.3938 6.61683C21.2146 6.47947 21.0818 6.36762 20.9386 6.24856C20.8183 6.14777 20.7043 6.05719 20.5398 5.94748C20.3035 5.82755 19.9915 5.82373 19.956 5.82373L19.9548 5.83053C19.8003 5.80757 19.6416 5.88412 19.5201 5.96662C19.505 5.97767 19.4896 5.98788 19.475 5.99851C19.2152 5.96236 18.9906 6.01382 18.7914 6.13799C18.626 6.19327 18.4707 6.31405 18.3784 6.3957C18.2514 6.43652 18.1592 6.52114 18.1274 6.55346L16.9156 7.788C16.7289 7.86922 16.5874 8.00148 16.4504 8.1299C16.3719 8.20347 16.2913 8.28044 16.1802 8.35741C15.8858 8.59045 15.5918 8.81116 15.302 9.02847C14.7846 9.41673 14.2965 9.7833 13.8209 10.2077C12.3176 11.6816 10.9696 13.2802 9.66637 14.8251L8.98111 15.6297L8.87755 15.6986C8.83704 15.7399 8.68296 15.8542 8.59693 15.9151C7.83234 16.3046 7.26857 16.8795 6.74122 17.4184L6.44682 17.6718C5.33355 18.6282 3.94757 19.8186 3.04179 20.9102C2.84343 21.1113 2.63422 21.3095 2.42334 21.5089C1.67502 22.2174 0.900841 22.9496 0.490765 23.9397C0.112428 24.8548 0.167557 25.8584 0.220174 26.8293C0.237713 27.1508 0.255669 27.4676 0.255669 27.7738C0.255669 28.4351 0.191778 29.1121 0.128723 29.7673C0.0594037 30.5107 -0.0136711 31.2787 0.00219312 32.0459L0.0019305 32.0458Z" fill="black"/>
<path d="M28.4886 10.9998C28.76 10.9998 29.0445 10.9349 29.3327 10.8079C30.7415 10.1881 31.9647 8.82122 32.569 8.06159C32.9909 7.53216 33.0195 7.08176 32.9925 6.70997C32.9799 6.54908 32.9538 6.38498 32.9255 6.214C32.8851 5.96764 32.8429 5.7136 32.8429 5.42893C32.8429 5.25958 32.8126 5.10111 32.7861 4.9612C32.7696 4.87612 32.7523 4.7983 32.7523 4.73459C32.7523 4.62128 32.698 4.485 32.6533 4.39226C32.553 3.63098 32.2037 3.03424 31.5762 2.53546C31.3044 2.27458 30.8725 1.94232 30.8653 1.94192C30.3677 1.39838 29.7587 0.807686 28.9867 0.496361L28.9935 0.46612L28.5653 0.355639C27.8435 0.168545 27.1368 0 26.4365 0C25.6788 0 25.0632 0.2004 24.5933 0.585076C23.6472 1.12861 22.9717 1.77453 22.4058 2.67857L22.3784 2.73502C22.3241 2.88946 22.3009 3.04147 22.2895 3.17051C22.099 3.40518 22 3.72937 22 3.95437C22 4.16082 22.1239 4.37573 22.233 4.56485C22.2592 4.60921 22.2836 4.65195 22.3038 4.69025L22.5613 4.95799C22.598 5.10194 22.6839 5.22574 22.7564 5.32977C22.7897 5.37735 22.823 5.42412 22.8474 5.4721L22.9035 5.54629C22.9397 5.58097 22.9996 5.67693 23.0286 5.73258C23.1424 5.94952 23.472 6.19669 23.5272 6.22895C24.3906 7.14708 25.2338 8.14097 25.8722 8.90473C26.002 9.06037 26.1297 9.22731 26.2591 9.39666C26.8326 10.1475 27.4833 10.9994 28.4887 10.9998L28.4886 10.9998Z" fill="black"/>
</svg>
