<svg width="26" height="26" viewBox="0 0 26 26" fill="none" xmlns="http://www.w3.org/2000/svg">
<path d="M24.0595 11.4287L24.036 11.4302C23.7672 11.4631 23.4919 11.4701 23.2245 11.4768C22.0151 11.5067 20.7495 11.6195 19.5445 11.5293C18.8131 11.4746 18.5737 11.4743 18.467 11.5046C17.1867 11.4432 15.8719 11.4586 14.731 11.4843C14.7279 11.0175 14.7359 10.4965 14.7356 10.4969C14.8781 8.5933 14.884 6.72494 14.8902 4.7459C14.8919 4.22876 14.8935 3.70949 14.8973 3.19977C14.9405 2.61987 14.8805 2.13974 14.7138 1.73197C14.6009 1.4568 14.3597 1.30785 14.1426 1.17803C14.0826 1.12714 14.0013 1.10457 13.9222 1.08234C13.8923 1.07408 13.843 1.06152 13.8499 1.07072C13.6637 0.854347 13.4147 0.897644 13.1949 0.935881C13.1445 0.944672 13.0915 0.953985 13.0367 0.96067L12.9811 0.974916L12.9441 1.00048C12.9265 1.01262 12.8691 1.0347 12.8139 1.05057C12.604 1.03712 12.4513 1.05188 12.2919 1.0757L12.0779 1.13102C12.0601 1.13446 12.0423 1.13862 11.9977 1.15032L11.9564 1.1605C11.7779 1.20537 11.5471 1.30016 11.5375 1.30386L11.5543 1.35134C11.0839 1.63748 11.058 2.03148 11.1492 2.36454L11.1049 2.46889L11.1793 2.5554C11.1693 2.6655 11.1603 2.73159 11.1635 2.73803L11.1226 2.77322L11.1079 2.82541C11.0296 3.10536 11.0483 3.48165 11.0883 3.68774C11.0447 3.85376 11.0927 4.03251 11.1194 4.11207C11.0366 6.37415 11.1847 8.60218 11.3282 10.7575L11.3815 11.5686C10.9409 11.5704 10.4872 11.5635 10.487 11.5637C8.58432 11.4208 6.71674 11.4144 4.73922 11.4081C4.2212 11.4064 3.70124 11.4048 3.19044 11.4008C2.61001 11.3576 2.13004 11.4178 1.72285 11.5843C1.44827 11.6967 1.29904 11.9372 1.16904 12.1548C1.11783 12.2144 1.09522 12.2964 1.07338 12.3752C1.06531 12.4049 1.05154 12.4539 1.06247 12.4475C0.846122 12.6337 0.889255 12.8829 0.927865 13.1027C0.936473 13.1533 0.945813 13.2059 0.952671 13.2609L0.966923 13.3166L0.992702 13.353C1.00501 13.3708 1.0269 13.4284 1.0428 13.4832C1.02901 13.6934 1.04416 13.8458 1.06744 14.0053L1.12311 14.2197C1.12656 14.2375 1.13058 14.2548 1.14239 14.3003L1.15261 14.3413C1.19733 14.5196 1.29177 14.7507 1.29531 14.7602L1.34297 14.7432C1.62915 15.2136 2.02403 15.2398 2.35687 15.1484L2.46162 15.1921L2.54736 15.1183C2.65747 15.1283 2.72355 15.1373 2.73037 15.1338L2.76556 15.1747L2.81776 15.1894C3.09754 15.2676 3.47364 15.249 3.67992 15.2089C3.84594 15.2525 4.02467 15.2045 4.1044 15.1781C6.36465 15.2614 8.59124 15.1134 10.7452 14.9701L11.4111 14.9262C11.3977 15.1691 11.389 15.4181 11.3799 15.6668C11.368 16.0059 11.3561 16.345 11.3318 16.669C11.3266 16.7381 11.342 16.8141 11.3575 16.8884C11.3626 16.9124 11.3694 16.9467 11.3736 16.9734L11.3574 17.0625C11.3251 17.8669 11.3782 18.6578 11.4296 19.4231C11.4802 20.1783 11.5329 20.9597 11.5049 21.7128C11.4189 22.1048 11.3437 23.1001 11.3534 23.7217L11.359 23.7627C11.3905 23.8869 11.4087 23.9796 11.4242 24.0585C11.4513 24.195 11.4721 24.3026 11.5364 24.4588L11.7687 24.7426C11.851 24.8382 11.9477 24.9177 12.0583 24.9807C12.084 25.3191 12.3138 25.5678 12.7534 25.7387C12.9401 25.8166 13.181 25.8347 13.2968 25.8437L13.3405 25.8417C13.7212 25.7764 14.0411 25.6309 14.2885 25.4181C14.66 25.0983 14.8678 24.6266 14.8715 24.0435C14.8383 23.7748 14.8315 23.4993 14.8249 23.2328C14.8092 22.6035 14.7615 21.9757 14.7504 21.346C14.7402 20.7466 14.8925 20.1483 14.7718 19.552C14.8262 18.8211 14.8268 18.5818 14.7967 18.4748C14.8563 17.2314 14.8431 15.9729 14.8195 14.8828C15.0928 14.8994 15.3738 14.9093 15.6553 14.9194C15.9962 14.9312 16.3365 14.9431 16.6623 14.9679C16.7311 14.9732 16.8072 14.9575 16.881 14.9421C16.9049 14.937 16.9394 14.93 16.9661 14.9259L17.0551 14.9419C17.8594 14.9743 18.6502 14.9211 19.4152 14.8698C20.171 14.8193 20.9522 14.7669 21.7056 14.7944C22.0979 14.8808 23.093 14.956 23.7143 14.9459L23.755 14.9405C23.8801 14.9089 23.9725 14.8907 24.0516 14.875C24.1873 14.8479 24.2954 14.8267 24.4512 14.7632L24.7349 14.5309C24.8301 14.4489 24.9098 14.3517 24.9732 14.2408C25.3112 14.2155 25.5606 13.9857 25.7313 13.5459C25.8095 13.3581 25.8273 13.118 25.8361 13.0023L25.8339 12.9584C25.6707 12.0089 25.0076 11.4362 24.0595 11.4287L24.0595 11.4287Z" fill="black"/>
</svg>
