<svg width="41" height="34" viewBox="0 0 41 34" fill="none" xmlns="http://www.w3.org/2000/svg">
<path d="M40.9392 2.23114C40.7673 1.41442 40.1453 0.379753 38.1673 0.0270707C35.8509 -0.2592 34.0554 1.78314 32.6388 3.4056C32.3301 3.75841 32.0354 4.0984 31.7489 4.39689C31.473 4.68501 31.1421 5.09519 30.9643 5.3192C30.4767 5.41198 30.1809 6.01321 29.9804 6.42279C29.9476 6.48932 29.9201 6.54975 29.8956 6.59247C29.4647 6.90378 29.1823 7.34753 28.9642 7.69668L21.0633 17.1255C20.8358 17.3617 19.8577 18.397 19.5356 18.9824C18.2674 20.31 17.1181 21.7762 15.9949 23.21L15.5845 23.7838C15.4553 23.9638 15.329 24.1415 15.2033 24.316C15.077 24.1726 14.9508 24.031 14.8262 23.8906C14.4895 23.5115 14.1656 23.1477 13.8639 22.7668C13.4961 22.2547 13.1249 21.7377 12.6022 21.062L11.8983 20.3375C11.6399 19.934 11.3739 19.5165 10.9681 19.0929C10.6068 18.7157 9.86604 17.8135 9.86196 17.8092C9.21883 17.0041 7.95605 15.5544 7.87702 15.4849L7.6876 15.1858C7.16783 14.3648 6.38324 13.1256 5.62318 12.3443C5.43318 12.2125 5.24374 12.0885 5.05431 11.9768L5.07419 11.9225C4.91225 11.8377 4.73919 11.7754 4.56789 11.7192C4.5065 11.6851 4.44277 11.6607 4.44628 11.6607C4.11596 11.4885 3.67863 11.483 3.63011 11.483L3.61315 11.5984C2.14919 11.6106 0.419774 12.5183 0.0888513 14.145C-0.226281 15.1344 0.35311 16.2069 0.944789 16.8246L2.5316 18.4812L2.6269 18.6808L2.67484 18.759C3.66408 20.0499 4.67325 21.4971 5.64835 22.8968L5.72319 22.9938C5.77347 23.0463 5.85591 23.191 5.92255 23.3222C6.93985 25.3177 8.80432 26.7436 10.0297 28.5796C10.7336 29.635 11.4849 30.5556 12.156 31.6225C12.5057 32.178 12.829 33.1113 13.385 33.4934C16.1054 35.3661 17.4746 31.5786 18.5884 29.7339L18.6077 29.6875C19.4935 28.7109 20.2121 27.8454 21.2988 26.5354L21.4327 26.3743C22.3044 25.2536 23.1803 24.1335 24.0537 23.0342L25.4283 21.5125C27.1986 19.5483 28.8713 17.6927 30.8597 15.6149C33.2661 12.5995 35.6497 10.1018 38.1473 7.97885C39.5569 6.78063 41.3544 4.20691 40.9392 2.23114Z" fill="#2D2D2D"/>
</svg>
