<svg width="41" height="36" viewBox="0 0 41 36" fill="none" xmlns="http://www.w3.org/2000/svg">
<path d="M7.459 23.6333C7.37192 23.0654 7.28562 22.0248 7.28562 22.0248C7.28562 20.9841 7.3727 19.5652 7.19855 18.4295C7.11147 18.0513 7.02517 17.578 6.93849 17.1997C6.93849 16.916 6.85141 16.4428 6.76511 16.3482C6.76511 15.213 6.67803 13.6995 6.15829 12.5638C6.07122 12.3747 5.63778 12.091 5.46441 12.091H4.94389C4.59714 12.091 3.90326 11.996 3.90326 11.996L4.94389 12.091C4.16331 11.996 3.55615 11.9019 2.77555 11.996C2.51549 12.091 2.08166 12.1851 1.90829 12.1851H1.73492C1.56154 12.1851 1.30148 12.3743 1.30148 12.3743L1.21441 12.4693C0.954342 12.4693 0.780967 13.0371 0.693891 13.0371L0.606815 13.1321C0.260064 13.3212 0 13.6999 0 14.2673C0.0870759 14.551 0.0870759 15.1189 0.0870759 15.1189C0.174152 16.5378 0.174152 17.8626 0.260452 19.2816V19.8494C0.260452 23.5392 0.520515 27.2287 0.693891 30.824C0.780967 31.8646 0.780966 32.9058 1.04064 33.8514C1.12772 34.1351 1.21402 34.4193 1.38739 34.703L1.64746 34.9867C1.90752 35.1758 2.16797 35.2704 2.42803 35.365H2.86147C4.07586 35.365 5.37652 34.8921 6.59101 34.7971C6.93776 34.7971 7.11152 34.608 7.37159 34.3243C7.45866 34.2293 7.54496 33.946 7.54496 33.946C8.15178 33.284 7.9784 32.0542 8.06548 31.2973C8.06548 29.4055 7.71873 27.5129 7.54496 25.6207C7.45905 24.9583 7.45905 24.2955 7.45905 23.6335L7.459 23.6333Z" fill="white"/>
<path d="M40.2479 18.2526C40.2394 18.1042 40.2335 17.9006 40.2273 17.6576C40.1849 16.0198 40.1313 12.5853 39.2291 12.1752C38.3933 11.8105 37.1393 11.9017 36.2199 11.9017C35.8856 11.9017 35.133 11.9929 35.133 11.9929H34.6316C34.4644 11.9929 34.2137 12.084 34.1301 11.9929C32.2911 11.9929 30.4519 11.9929 28.5293 11.8105C28.0278 11.7193 27.4424 11.6282 26.8573 11.537H26.0216L26.4045 11.5819C25.681 11.5692 24.9692 11.5442 24.2427 11.5612C24.4608 9.63755 24.6023 7.70428 24.6668 5.76753C24.7154 4.32441 25.1002 2.06925 24.3519 0.85759C24.0448 0.361005 23.4944 -0.329862 22.9358 0.177807C22.9475 0.221486 23.0178 0.200283 23.0233 0.235481C22.1444 0.168477 21.4497 0.961913 20.7577 1.4301C19.9328 1.9886 19.1328 2.59074 18.3608 3.23321C17.7435 3.74761 17.144 4.28744 16.545 4.82647C15.392 5.86544 14.2391 6.90445 13.0861 7.94296C12.3654 8.59222 10.6141 9.621 10.3058 10.6239C10.2222 10.7151 10.2222 10.8974 10.2222 10.8974V10.9886C10.1608 11.4585 10.099 11.9279 10.0376 12.3977C9.96567 12.6153 9.93263 12.8426 9.97112 13.0733V13.9066C9.88754 13.9978 9.88754 14.2713 9.88754 14.2713C9.72038 14.5448 9.97112 15.183 9.97112 15.2742C9.88754 15.3654 9.88754 15.6389 9.88754 15.6389V15.7301C9.88754 16.9158 10.0547 17.8275 10.0547 18.9216C10.1383 19.4687 10.2219 20.6544 10.2219 20.6544V21.4749C10.3054 22.4779 10.3054 23.4812 10.389 24.5754V26.4905C10.2759 28.4675 10.2397 30.4993 10.298 32.4737C10.3159 33.0725 10.347 33.6853 10.5632 34.2361C10.7396 34.686 11.03 35.0694 11.3165 35.446C11.4537 35.6254 11.6007 35.8133 11.8032 35.89C11.8918 35.9235 11.9847 35.9307 12.0792 35.9312C12.4672 36.0546 12.983 35.9744 13.3146 35.9744C14.6522 35.7921 15.9059 35.7921 17.2435 35.7921C18.1628 35.7921 19.3333 35.5185 20.3362 35.4274H22.1752C22.9274 35.4274 23.5964 35.1538 24.3486 35.1538C26.4385 34.9715 28.7791 34.7891 30.9524 34.9715C32.1435 35.0398 33.4667 35.2043 34.6298 35.1666C35.8931 35.1258 36.0008 32.6739 36.3021 31.6879C36.4693 31.1408 36.8036 29.9551 36.8036 29.9551C36.8036 29.864 36.8872 29.5904 36.8872 29.5904C37.2215 28.861 37.4722 28.1313 37.7229 27.3106C37.8065 27.1283 37.8901 26.6724 37.8901 26.6724C38.336 25.5372 38.7438 24.446 39.11 23.2807C39.4913 22.0679 40.1681 21.0752 40.2617 19.7231C40.2971 19.2346 40.2761 18.7427 40.2478 18.2524L40.2479 18.2526Z" fill="white"/>
</svg>
